<svg width="16" height="17" viewBox="0 0 16 17" fill="none" xmlns="http://www.w3.org/2000/svg">
<g id="carbon:location" clip-path="url(#clip0_6793_17263)">
<path id="Vector" d="M8 10.5C7.50555 10.5 7.0222 10.3534 6.61108 10.0787C6.19995 9.80397 5.87952 9.41353 5.6903 8.95671C5.50108 8.49989 5.45157 7.99723 5.54804 7.51228C5.6445 7.02732 5.8826 6.58187 6.23223 6.23223C6.58187 5.8826 7.02732 5.6445 7.51228 5.54804C7.99723 5.45157 8.4999 5.50108 8.95671 5.6903C9.41353 5.87952 9.80397 6.19995 10.0787 6.61108C10.3534 7.0222 10.5 7.50555 10.5 8C10.4992 8.6628 10.2356 9.29822 9.76689 9.76689C9.29822 10.2356 8.6628 10.4992 8 10.5ZM8 6.5C7.70333 6.5 7.41332 6.58797 7.16665 6.7528C6.91997 6.91762 6.72771 7.15189 6.61418 7.42598C6.50065 7.70007 6.47095 8.00167 6.52882 8.29264C6.5867 8.58361 6.72956 8.85088 6.93934 9.06066C7.14912 9.27044 7.41639 9.4133 7.70737 9.47118C7.99834 9.52906 8.29994 9.49935 8.57403 9.38582C8.84812 9.27229 9.08238 9.08003 9.24721 8.83336C9.41203 8.58668 9.5 8.29667 9.5 8C9.4996 7.6023 9.34144 7.221 9.06022 6.93978C8.779 6.65856 8.3977 6.5004 8 6.5Z" fill="#7D7D7D"/>
<path id="Vector_2" d="M8.00001 16.5L3.78201 11.5255C3.7234 11.4508 3.66539 11.3756 3.60801 11.3C2.8875 10.3509 2.49826 9.19161 2.50001 8C2.50001 6.54131 3.07947 5.14236 4.11092 4.11091C5.14237 3.07946 6.54132 2.5 8.00001 2.5C9.4587 2.5 10.8576 3.07946 11.8891 4.11091C12.9205 5.14236 13.5 6.54131 13.5 8C13.5018 9.19107 13.1127 10.3498 12.3925 11.2985L12.392 11.3C12.392 11.3 12.242 11.497 12.2195 11.5235L8.00001 16.5ZM4.40651 10.6975C4.40651 10.6975 4.52301 10.8515 4.54951 10.8845L8.00001 14.954L11.455 10.879C11.477 10.8515 11.5945 10.696 11.5945 10.696C12.1831 9.92056 12.5012 8.97352 12.5 8C12.5 6.80653 12.0259 5.66193 11.182 4.81802C10.3381 3.97411 9.19348 3.5 8.00001 3.5C6.80653 3.5 5.66194 3.97411 4.81803 4.81802C3.97411 5.66193 3.50001 6.80653 3.50001 8C3.49896 8.97412 3.81739 9.92171 4.40651 10.6975Z" fill="#7D7D7D"/>
</g>
<defs>
<clipPath id="clip0_6793_17263">
<rect width="16" height="16" fill="white" transform="translate(0 0.5)"/>
</clipPath>
</defs>
</svg>
