<svg width="16" height="16" viewBox="0 0 16 16" fill="none" xmlns="http://www.w3.org/2000/svg">
<g id="carbon:favorite">
<path id="Vector" d="M10.5901 3.84C10.8959 3.83974 11.1987 3.90053 11.4807 4.01881C11.7627 4.13709 12.0182 4.31048 12.2323 4.5288C12.6735 4.97668 12.9208 5.58013 12.9208 6.2088C12.9208 6.83748 12.6735 7.44092 12.2323 7.8888L7.88114 12.2946L3.52994 7.8888C3.08876 7.44092 2.84147 6.83748 2.84147 6.2088C2.84147 5.58013 3.08876 4.97668 3.52994 4.5288C3.74417 4.31063 3.99974 4.13734 4.2817 4.01904C4.56366 3.90075 4.86636 3.83982 5.17214 3.83982C5.47791 3.83982 5.78061 3.90075 6.06257 4.01904C6.34453 4.13734 6.6001 4.31063 6.81434 4.5288L7.88114 5.6208L8.94374 4.5372C9.1572 4.31627 9.41302 4.14066 9.69591 4.02087C9.97879 3.90108 10.2829 3.83956 10.5901 3.84ZM10.5901 3C10.1725 2.99965 9.75899 3.08268 9.37386 3.24423C8.98874 3.40578 8.63974 3.6426 8.34734 3.9408L7.88114 4.4112L7.41494 3.9408C7.12217 3.64314 6.77309 3.40673 6.38803 3.24536C6.00297 3.08399 5.58964 3.00088 5.17214 3.00088C4.75463 3.00088 4.3413 3.08399 3.95624 3.24536C3.57118 3.40673 3.2221 3.64314 2.92934 3.9408C2.33372 4.54712 2 5.36307 2 6.213C2 7.06293 2.33372 7.87888 2.92934 8.4852L7.88114 13.5L12.8329 8.4852C13.4285 7.87888 13.7623 7.06293 13.7623 6.213C13.7623 5.36307 13.4285 4.54712 12.8329 3.9408C12.5401 3.64317 12.191 3.40672 11.806 3.24521C11.421 3.0837 11.0077 3.00035 10.5901 3Z" fill="#B0B0B0"/>
</g>
</svg>
