<svg width="18" height="21" viewBox="0 0 18 21" fill="none" xmlns="http://www.w3.org/2000/svg">
<g id="Vector">
<path id="Vector_2" d="M12.1528 6.96323C11.7369 6.95474 11.3932 7.27299 11.3762 7.68883L11.0792 16.2942C11.0622 16.71 11.389 17.058 11.8006 17.0707C11.8091 17.0707 11.8175 17.0707 11.826 17.0707C12.2291 17.0707 12.5644 16.7525 12.5771 16.3451L12.8741 7.73975C12.8911 7.32815 12.5644 6.9802 12.1528 6.96323ZM5.84724 6.96323C5.43564 6.9802 5.10891 7.32815 5.12588 7.73975L5.42291 16.3451C5.43564 16.7525 5.77086 17.0707 6.17397 17.0707H6.19943C6.61103 17.058 6.93777 16.71 6.92079 16.2942L6.62376 7.68883C6.60679 7.27299 6.25884 6.95474 5.84724 6.96323ZM9 6.96323C8.58416 6.96323 8.24894 7.30269 8.24894 7.71429V16.2857C8.24894 16.6973 8.58416 17.0325 9 17.0325C9.41584 17.0325 9.75106 16.6973 9.75106 16.2857V7.71429C9.75106 7.30269 9.41584 6.96323 9 6.96323ZM3.47949 5.14286H14.5205L13.8034 18.0467C13.7779 18.5007 13.4045 18.8571 12.9505 18.8571H5.04951C4.59547 18.8571 4.22207 18.5007 4.19661 18.0467L3.47949 5.14286ZM7.28571 1.71429H10.7143C10.9519 1.71429 11.1429 1.90523 11.1429 2.14286V3.42857H6.85714V2.14286C6.85714 1.90523 7.04809 1.71429 7.28571 1.71429ZM7.28571 0C6.10608 0 5.14286 0.963224 5.14286 2.14286V3.42857H0.861386C0.386139 3.42857 0 3.81471 0 4.28571C0 4.76096 0.386139 5.14286 0.861386 5.14286H1.76096L2.48232 18.14C2.5587 19.5021 3.68741 20.5672 5.04951 20.5672H12.9505C14.3126 20.5672 15.4413 19.5021 15.5177 18.14L16.239 5.14286H17.1429C17.6139 5.14286 18 4.76096 18 4.28571C18 3.81471 17.6139 3.42857 17.1429 3.42857H12.8571V2.14286C12.8571 0.963224 11.8939 0 10.7143 0" fill="#FF3B30"/>
</g>
</svg>
