<svg width="16" height="17" viewBox="0 0 16 17" fill="none" xmlns="http://www.w3.org/2000/svg">
<g id="mdi:about-circle-outline">
<g id="Vector">
<mask id="path-1-inside-1_6883_21329" fill="white">
<path d="M7.33334 6.50065H8.66668V5.16732H7.33334M8.00001 13.834C5.06001 13.834 2.66668 11.4406 2.66668 8.50065C2.66668 5.56065 5.06001 3.16732 8.00001 3.16732C10.94 3.16732 13.3333 5.56065 13.3333 8.50065C13.3333 11.4406 10.94 13.834 8.00001 13.834ZM8.00001 1.83398C7.12453 1.83398 6.25762 2.00642 5.44879 2.34145C4.63995 2.67649 3.90502 3.16755 3.28596 3.78661C2.03572 5.03685 1.33334 6.73254 1.33334 8.50065C1.33334 10.2688 2.03572 11.9645 3.28596 13.2147C3.90502 13.8338 4.63995 14.3248 5.44879 14.6598C6.25762 14.9949 7.12453 15.1673 8.00001 15.1673C9.76812 15.1673 11.4638 14.4649 12.7141 13.2147C13.9643 11.9645 14.6667 10.2688 14.6667 8.50065C14.6667 7.62517 14.4942 6.75827 14.1592 5.94943C13.8242 5.14059 13.3331 4.40566 12.7141 3.78661C12.095 3.16755 11.3601 2.67649 10.5512 2.34145C9.7424 2.00642 8.87549 1.83398 8.00001 1.83398ZM7.33334 11.834H8.66668V7.83398H7.33334V11.834Z"/>
</mask>
<path d="M8.66668 6.50065V7.50065H9.66668V6.50065H8.66668ZM8.66668 5.16732H9.66668V4.16732H8.66668V5.16732ZM1.33334 8.50065L0.333344 8.50065L1.33334 8.50065ZM8.00001 15.1673L8.00001 16.1673L8.00001 15.1673ZM7.33334 11.834H6.33334V12.834H7.33334V11.834ZM8.66668 11.834V12.834H9.66668V11.834H8.66668ZM8.66668 7.83398H9.66668V6.83398H8.66668V7.83398ZM7.33334 7.83398V6.83398H6.33334V7.83398H7.33334ZM7.33334 7.50065H8.66668V5.50065H7.33334V7.50065ZM9.66668 6.50065V5.16732H7.66668V6.50065H9.66668ZM8.66668 4.16732H7.33334V6.16732H8.66668V4.16732ZM8.00001 12.834C5.61229 12.834 3.66668 10.8884 3.66668 8.50065H1.66668C1.66668 11.9929 4.50773 14.834 8.00001 14.834V12.834ZM3.66668 8.50065C3.66668 6.11294 5.61229 4.16732 8.00001 4.16732V2.16732C4.50773 2.16732 1.66668 5.00837 1.66668 8.50065H3.66668ZM8.00001 4.16732C10.3877 4.16732 12.3333 6.11294 12.3333 8.50065H14.3333C14.3333 5.00837 11.4923 2.16732 8.00001 2.16732V4.16732ZM12.3333 8.50065C12.3333 10.8884 10.3877 12.834 8.00001 12.834V14.834C11.4923 14.834 14.3333 11.9929 14.3333 8.50065H12.3333ZM8.00001 0.833984C6.99321 0.833984 5.99627 1.03229 5.0661 1.41757L5.83147 3.26533C6.51898 2.98056 7.25585 2.83398 8.00001 2.83398L8.00001 0.833984ZM5.0661 1.41757C4.13594 1.80286 3.29077 2.36758 2.57886 3.0795L3.99307 4.49371C4.51927 3.96751 5.14396 3.55011 5.83147 3.26533L5.0661 1.41757ZM2.57886 3.0795C1.14108 4.51728 0.333344 6.46732 0.333344 8.50065L2.33334 8.50065C2.33334 6.99776 2.93037 5.55642 3.99307 4.49371L2.57886 3.0795ZM0.333344 8.50065C0.333344 10.534 1.14108 12.484 2.57886 13.9218L3.99307 12.5076C2.93037 11.4449 2.33334 10.0035 2.33334 8.50065L0.333344 8.50065ZM2.57886 13.9218C3.29077 14.6337 4.13594 15.1984 5.0661 15.5837L5.83147 13.736C5.14396 13.4512 4.51927 13.0338 3.99307 12.5076L2.57886 13.9218ZM5.0661 15.5837C5.99627 15.969 6.99321 16.1673 8.00001 16.1673L8.00001 14.1673C7.25585 14.1673 6.51898 14.0207 5.83147 13.736L5.0661 15.5837ZM8.00001 16.1673C10.0333 16.1673 11.9834 15.3596 13.4212 13.9218L12.0069 12.5076C10.9442 13.5703 9.5029 14.1673 8.00001 14.1673L8.00001 16.1673ZM13.4212 13.9218C14.8589 12.484 15.6667 10.534 15.6667 8.50065H13.6667C13.6667 10.0035 13.0697 11.4449 12.0069 12.5076L13.4212 13.9218ZM15.6667 8.50065C15.6667 7.49385 15.4684 6.49691 15.0831 5.56674L13.2353 6.33211C13.5201 7.01962 13.6667 7.75649 13.6667 8.50065H15.6667ZM15.0831 5.56674C14.6978 4.63658 14.1331 3.79141 13.4212 3.0795L12.0069 4.49371C12.5331 5.01991 12.9506 5.6446 13.2353 6.33211L15.0831 5.56674ZM13.4212 3.0795C12.7092 2.36758 11.8641 1.80286 10.9339 1.41757L10.1685 3.26533C10.8561 3.55011 11.4807 3.96751 12.0069 4.49371L13.4212 3.0795ZM10.9339 1.41757C10.0038 1.03229 9.00681 0.833984 8.00001 0.833984L8.00001 2.83398C8.74417 2.83398 9.48104 2.98056 10.1685 3.26533L10.9339 1.41757ZM7.33334 12.834H8.66668V10.834H7.33334V12.834ZM9.66668 11.834V7.83398H7.66668V11.834H9.66668ZM8.66668 6.83398H7.33334V8.83398H8.66668V6.83398ZM6.33334 7.83398V11.834H8.33334V7.83398H6.33334Z" fill="#FF3B30" mask="url(#path-1-inside-1_6883_21329)"/>
</g>
</g>
</svg>
