<svg width="16" height="16" viewBox="0 0 16 16" fill="none" xmlns="http://www.w3.org/2000/svg">
<g id="mage:filter">
<path id="Vector" d="M14.1663 7.99863H5.92968M3.02234 7.99863H1.83301M3.02234 7.99863C3.02234 7.61318 3.17546 7.24352 3.44801 6.97096C3.72057 6.69841 4.09023 6.54529 4.47568 6.54529C4.86112 6.54529 5.23078 6.69841 5.50334 6.97096C5.77589 7.24352 5.92901 7.61318 5.92901 7.99863C5.92901 8.38407 5.77589 8.75373 5.50334 9.02629C5.23078 9.29884 4.86112 9.45196 4.47568 9.45196C4.09023 9.45196 3.72057 9.29884 3.44801 9.02629C3.17546 8.75373 3.02234 8.38407 3.02234 7.99863ZM14.1663 12.4033H10.3343M10.3343 12.4033C10.3343 12.7888 10.1809 13.1589 9.90824 13.4315C9.63562 13.7041 9.26588 13.8573 8.88034 13.8573C8.49489 13.8573 8.12523 13.7035 7.85268 13.431C7.58013 13.1584 7.42701 12.7887 7.42701 12.4033M10.3343 12.4033C10.3343 12.0178 10.1809 11.6483 9.90824 11.3757C9.63562 11.1031 9.26588 10.95 8.88034 10.95C8.49489 10.95 8.12523 11.1031 7.85268 11.3756C7.58013 11.6482 7.42701 12.0178 7.42701 12.4033M7.42701 12.4033H1.83301M14.1663 3.59396H12.0963M9.18901 3.59396H1.83301M9.18901 3.59396C9.18901 3.20851 9.34213 2.83885 9.61468 2.5663C9.88723 2.29374 10.2569 2.14063 10.6423 2.14063C10.8332 2.14062 11.0222 2.17822 11.1985 2.25125C11.3748 2.32429 11.5351 2.43134 11.67 2.5663C11.805 2.70125 11.912 2.86147 11.985 3.03779C12.0581 3.21412 12.0957 3.4031 12.0957 3.59396C12.0957 3.78481 12.0581 3.9738 11.985 4.15013C11.912 4.32645 11.805 4.48667 11.67 4.62162C11.5351 4.75658 11.3748 4.86363 11.1985 4.93666C11.0222 5.0097 10.8332 5.04729 10.6423 5.04729C10.2569 5.04729 9.88723 4.89417 9.61468 4.62162C9.34213 4.34907 9.18901 3.97941 9.18901 3.59396Z" stroke="#1E1E1E" stroke-miterlimit="10" stroke-linecap="round"/>
</g>
</svg>
