<svg width="17" height="17" viewBox="0 0 17 17" fill="none" xmlns="http://www.w3.org/2000/svg">
<g id="bi:google" clip-path="url(#clip0_6745_24971)">
<path id="Vector" d="M16.045 7.05848C16.1384 7.59542 16.1849 8.13947 16.184 8.68448C16.184 11.1185 15.314 13.1765 13.8 14.5695H13.802C12.478 15.7925 10.658 16.5005 8.5 16.5005C6.37827 16.5005 4.34344 15.6576 2.84315 14.1573C1.34285 12.657 0.5 10.6222 0.5 8.50048C0.5 6.37875 1.34285 4.34391 2.84315 2.84362C4.34344 1.34333 6.37827 0.500478 8.5 0.500478C10.4857 0.478364 12.4032 1.22429 13.852 2.58248L11.568 4.86648C10.7422 4.07973 9.64044 3.64879 8.5 3.66648C6.413 3.66648 4.64 5.07448 4.008 6.97048C3.6735 7.96408 3.6735 9.03988 4.008 10.0335H4.011C4.646 11.9265 6.416 13.3345 8.503 13.3345C9.581 13.3345 10.507 13.0585 11.225 12.5705H11.222C11.639 12.2944 11.9957 11.9366 12.2705 11.5188C12.5453 11.1009 12.7326 10.6317 12.821 10.1395H8.5V7.05948L16.045 7.05848Z" fill="#1E1E1E"/>
</g>
<defs>
<clipPath id="clip0_6745_24971">
<rect width="16" height="16" fill="white" transform="translate(0.5 0.5)"/>
</clipPath>
</defs>
</svg>
