<svg width="14" height="14" viewBox="0 0 14 14" fill="none" xmlns="http://www.w3.org/2000/svg">
<g id="Group">
<path id="Vector" fill-rule="evenodd" clip-rule="evenodd" d="M1.68879 6.98114C1.20727 7.70379 0.950354 8.55276 0.950391 9.42114V10.1995C0.950391 10.3056 0.908248 10.4074 0.833233 10.4824C0.758219 10.5574 0.656477 10.5995 0.550391 10.5995C0.444304 10.5995 0.342562 10.5574 0.267548 10.4824C0.192533 10.4074 0.150391 10.3056 0.150391 10.1995V9.42194C0.150634 8.3951 0.454887 7.39132 1.02479 6.53714L1.11119 6.40754C1.14034 6.36384 1.17782 6.3263 1.22148 6.29708C1.26514 6.26786 1.31413 6.24753 1.36564 6.23724C1.41716 6.22695 1.4702 6.22691 1.52173 6.23712C1.57327 6.24733 1.62229 6.26759 1.66599 6.29674C1.70969 6.3259 1.74723 6.36337 1.77645 6.40703C1.80567 6.45069 1.826 6.49968 1.83629 6.55119C1.84658 6.60271 1.84662 6.65575 1.83641 6.70729C1.8262 6.75882 1.80594 6.80784 1.77679 6.85154L1.68879 6.98114Z" fill="#7D7D7D"/>
<path id="Vector_2" fill-rule="evenodd" clip-rule="evenodd" d="M3.94573 5.6916C3.07373 5.6916 2.26013 6.1268 1.77693 6.8516L1.11133 6.4084C1.42244 5.94201 1.84381 5.55957 2.33809 5.29499C2.83237 5.03041 3.38429 4.89185 3.94493 4.8916H4.12093C4.22701 4.8916 4.32876 4.93374 4.40377 5.00876C4.47879 5.08377 4.52093 5.18551 4.52093 5.2916C4.52093 5.39769 4.47879 5.49943 4.40377 5.57444C4.32876 5.64946 4.22701 5.6916 4.12093 5.6916H3.94573ZM6.40813 6.9716C6.78413 7.5364 6.98493 8.1988 6.98493 8.8772H7.78493C7.78458 8.04128 7.53715 7.22411 7.07373 6.5284L6.99373 6.4084C6.96539 6.36301 6.92822 6.32376 6.88444 6.29299C6.84066 6.26221 6.79114 6.24054 6.73883 6.22925C6.68652 6.21795 6.63248 6.21727 6.5799 6.22724C6.52732 6.23721 6.47728 6.25763 6.43273 6.28729C6.38819 6.31696 6.35005 6.35525 6.32057 6.39992C6.29109 6.44459 6.27088 6.49471 6.26113 6.54733C6.25137 6.59995 6.25228 6.654 6.26379 6.70626C6.27529 6.75852 6.29717 6.80795 6.32813 6.8516L6.40813 6.9716Z" fill="#7D7D7D"/>
<path id="Vector_3" fill-rule="evenodd" clip-rule="evenodd" d="M4.15998 5.6916C5.03118 5.6916 5.84478 6.1268 6.32798 6.8516L6.99358 6.4084C6.68247 5.94201 6.2611 5.55957 5.76682 5.29499C5.27254 5.03041 4.72062 4.89185 4.15998 4.8916H3.98398C3.93146 4.8916 3.87944 4.90195 3.83091 4.92205C3.78238 4.94215 3.73828 4.97162 3.70114 5.00876C3.664 5.0459 3.63453 5.09 3.61443 5.13853C3.59433 5.18706 3.58398 5.23907 3.58398 5.2916C3.58398 5.34413 3.59433 5.39615 3.61443 5.44468C3.63453 5.49321 3.664 5.5373 3.70114 5.57444C3.73828 5.61159 3.78238 5.64105 3.83091 5.66115C3.87944 5.68126 3.93146 5.6916 3.98398 5.6916H4.15998Z" fill="#7D7D7D"/>
<path id="Vector_4" fill-rule="evenodd" clip-rule="evenodd" d="M4.00039 4.79941C4.23677 4.79941 4.47083 4.75286 4.68922 4.6624C4.90761 4.57194 5.10604 4.43935 5.27318 4.27221C5.44033 4.10506 5.57292 3.90663 5.66337 3.68824C5.75383 3.46986 5.80039 3.23579 5.80039 2.99941C5.80039 2.76303 5.75383 2.52897 5.66337 2.31058C5.57292 2.0922 5.44033 1.89377 5.27318 1.72662C5.10604 1.55948 4.90761 1.42689 4.68922 1.33643C4.47083 1.24597 4.23677 1.19941 4.00039 1.19941C3.523 1.19941 3.06516 1.38906 2.7276 1.72662C2.39003 2.06419 2.20039 2.52202 2.20039 2.99941C2.20039 3.4768 2.39003 3.93464 2.7276 4.27221C3.06516 4.60977 3.523 4.79941 4.00039 4.79941ZM4.00039 5.59941C4.68995 5.59941 5.35127 5.32549 5.83887 4.83789C6.32646 4.3503 6.60039 3.68898 6.60039 2.99941C6.60039 2.30985 6.32646 1.64853 5.83887 1.16094C5.35127 0.673342 4.68995 0.399414 4.00039 0.399414C3.31083 0.399414 2.64951 0.673342 2.16191 1.16094C1.67432 1.64853 1.40039 2.30985 1.40039 2.99941C1.40039 3.68898 1.67432 4.3503 2.16191 4.83789C2.64951 5.32549 3.31083 5.59941 4.00039 5.59941ZM7.40759 9.54821C6.92564 10.271 6.66843 11.1203 6.66839 11.989V12.8162C6.66839 12.9223 6.62625 13.024 6.55123 13.0991C6.47622 13.1741 6.37448 13.2162 6.26839 13.2162C6.1623 13.2162 6.06056 13.1741 5.98555 13.0991C5.91053 13.024 5.86839 12.9223 5.86839 12.8162V11.989C5.86832 10.9626 6.172 9.95914 6.74119 9.10501L6.84759 8.94501C6.90657 8.85675 6.99821 8.79553 7.10233 8.77483C7.20645 8.75412 7.31453 8.77563 7.40279 8.83461C7.49105 8.8936 7.55227 8.98523 7.57298 9.08935C7.59368 9.19347 7.57217 9.30155 7.51319 9.38981L7.40759 9.54821Z" fill="#7D7D7D"/>
<path id="Vector_5" fill-rule="evenodd" clip-rule="evenodd" d="M9.73646 8.19941C9.29639 8.19935 8.86312 8.30798 8.47514 8.51565C8.08715 8.72332 7.75647 9.0236 7.51246 9.38981L6.84766 8.94581C7.16467 8.47018 7.59422 8.08016 8.09816 7.8104C8.6021 7.54063 9.16485 7.39946 9.73646 7.39941H9.91566C10.0217 7.39941 10.1235 7.44156 10.1985 7.51657C10.2735 7.59159 10.3157 7.69333 10.3157 7.79941C10.3157 7.9055 10.2735 8.00724 10.1985 8.08226C10.1235 8.15727 10.0217 8.19941 9.91566 8.19941H9.73646ZM12.2861 9.54821C12.768 10.271 13.0252 11.1203 13.0253 11.989V12.8162C13.0253 12.9223 13.0674 13.024 13.1424 13.0991C13.2174 13.1741 13.3192 13.2162 13.4253 13.2162C13.5313 13.2162 13.6331 13.1741 13.7081 13.0991C13.7831 13.024 13.8253 12.9223 13.8253 12.8162V11.989C13.8251 10.9625 13.5211 9.95905 12.9517 9.10501L12.8453 8.94501C12.7863 8.85675 12.6946 8.79553 12.5905 8.77483C12.4864 8.75412 12.3783 8.77563 12.2901 8.83461C12.2018 8.8936 12.1406 8.98523 12.1199 9.08935C12.0992 9.19347 12.1207 9.30155 12.1797 9.38981L12.2861 9.54821Z" fill="#7D7D7D"/>
<path id="Vector_6" fill-rule="evenodd" clip-rule="evenodd" d="M9.95695 8.19941C10.397 8.19935 10.8303 8.30798 11.2183 8.51565C11.6063 8.72332 11.9369 9.0236 12.181 9.38981L12.8466 8.94581C12.5295 8.47006 12.0998 8.07998 11.5957 7.81021C11.0916 7.54044 10.5287 7.39933 9.95695 7.39941H9.77695C9.67087 7.39941 9.56912 7.44156 9.49411 7.51657C9.4191 7.59159 9.37695 7.69333 9.37695 7.79941C9.37695 7.9055 9.4191 8.00724 9.49411 8.08226C9.56912 8.15727 9.67087 8.19941 9.77695 8.19941H9.95695Z" fill="#7D7D7D"/>
<path id="Vector_7" fill-rule="evenodd" clip-rule="evenodd" d="M9.80117 7.4C10.0376 7.4 10.2716 7.35344 10.49 7.26298C10.7084 7.17252 10.9068 7.03994 11.074 6.87279C11.2411 6.70565 11.3737 6.50722 11.4642 6.28883C11.5546 6.07044 11.6012 5.83638 11.6012 5.6C11.6012 5.36362 11.5546 5.12956 11.4642 4.91117C11.3737 4.69278 11.2411 4.49435 11.074 4.32721C10.9068 4.16006 10.7084 4.02748 10.49 3.93702C10.2716 3.84656 10.0376 3.8 9.80117 3.8C9.32378 3.8 8.86595 3.98964 8.52838 4.32721C8.19081 4.66477 8.00117 5.12261 8.00117 5.6C8.00117 6.07739 8.19081 6.53523 8.52838 6.87279C8.86595 7.21036 9.32378 7.4 9.80117 7.4ZM9.80117 8.2C10.4907 8.2 11.1521 7.92607 11.6396 7.43848C12.1272 6.95088 12.4012 6.28956 12.4012 5.6C12.4012 4.91044 12.1272 4.24912 11.6396 3.76152C11.1521 3.27393 10.4907 3 9.80117 3C9.11161 3 8.45029 3.27393 7.96269 3.76152C7.4751 4.24912 7.20117 4.91044 7.20117 5.6C7.20117 6.28956 7.4751 6.95088 7.96269 7.43848C8.45029 7.92607 9.11161 8.2 9.80117 8.2Z" fill="#7D7D7D"/>
</g>
</svg>
