<svg width="16" height="16" viewBox="0 0 16 16" fill="none" xmlns="http://www.w3.org/2000/svg">
<g id="ic:baseline-arrow-drop-down">
<path id="Vector" d="M4.17023 9.28341C4.28302 9.40583 4.43597 9.47461 4.59545 9.47461C4.75493 9.47461 4.90788 9.40583 5.02066 9.28341L7.99777 6.05089L10.9749 9.28341C11.0883 9.40237 11.2402 9.46819 11.3979 9.4667C11.5556 9.46521 11.7065 9.39653 11.818 9.27546C11.9295 9.15438 11.9927 8.99059 11.9941 8.81937C11.9955 8.64814 11.9349 8.48318 11.8253 8.36002L8.42299 4.66581C8.3102 4.54338 8.15725 4.47461 7.99777 4.47461C7.83829 4.47461 7.68534 4.54338 7.57256 4.66581L4.17023 8.36002C4.05748 8.48248 3.99414 8.64855 3.99414 8.82172C3.99414 8.99488 4.05748 9.16095 4.17023 9.28341Z" fill="#1E1E1E"/>
</g>
</svg>
