<svg width="16" height="22" viewBox="0 0 16 22" fill="none" xmlns="http://www.w3.org/2000/svg">
<g id="Group">
<path id="Vector" d="M10.5 8C10.5 8.66304 10.2366 9.29893 9.76777 9.76777C9.29893 10.2366 8.66304 10.5 8 10.5C7.33696 10.5 6.70107 10.2366 6.23223 9.76777C5.76339 9.29893 5.5 8.66304 5.5 8C5.5 7.33696 5.76339 6.70107 6.23223 6.23223C6.70107 5.76339 7.33696 5.5 8 5.5C8.66304 5.5 9.29893 5.76339 9.76777 6.23223C10.2366 6.70107 10.5 7.33696 10.5 8Z" stroke="#62ADCF" stroke-width="2" stroke-linecap="round" stroke-linejoin="round"/>
<path id="Vector_2" d="M14 19C14 20.105 11.314 21 7.99999 21C4.68599 21 1.99999 20.105 1.99999 19M9.25699 16.494C8.91922 16.819 8.46871 17.0005 7.99999 17.0005C7.53127 17.0005 7.08076 16.819 6.74299 16.494C3.65399 13.501 -0.485008 10.158 1.53299 5.304C2.62599 2.679 5.24599 1 7.99999 1C10.754 1 13.375 2.68 14.467 5.304C16.483 10.151 12.354 13.511 9.25699 16.494Z" stroke="#62ADCF" stroke-width="2" stroke-linecap="round" stroke-linejoin="round"/>
</g>
</svg>
