<svg width="200" height="195" viewBox="0 0 200 195" fill="none" xmlns="http://www.w3.org/2000/svg">
<g id="Clip path group">
<mask id="mask0_6883_13576" style="mask-type:luminance" maskUnits="userSpaceOnUse" x="0" y="0" width="200" height="195">
<g id="__lottie_element_5187">
<path id="Vector" d="M200 0H0V195H200V0Z" fill="white"/>
</g>
</mask>
<g mask="url(#mask0_6883_13576)">
<g id="Group">
<g id="Group_2">
<g id="Group_3">
<path id="Vector_2" d="M94.4236 41.7539C133.392 41.7539 165.031 73.1663 165.031 111.855C165.031 150.544 133.392 181.957 94.4236 181.957C55.4555 181.957 23.8164 150.544 23.8164 111.855C23.8164 73.1663 55.4555 41.7539 94.4236 41.7539Z" fill="#F7F7F7"/>
<path id="Vector_3" d="M94.4236 41.7539C133.392 41.7539 165.031 73.1663 165.031 111.855C165.031 150.544 133.392 181.957 94.4236 181.957C55.4555 181.957 23.8164 150.544 23.8164 111.855C23.8164 73.1663 55.4555 41.7539 94.4236 41.7539Z" fill="#F7F7F7"/>
</g>
</g>
<g id="Group_4">
<g id="Group_5">
<path id="Vector_4" d="M93.9063 134.922C112.757 134.922 128.061 137.766 128.061 141.27C128.061 144.773 112.757 147.618 93.9063 147.618C75.0561 147.618 59.7512 144.773 59.7512 141.27C59.7512 137.766 75.0561 134.922 93.9063 134.922Z" fill="#D2C492"/>
</g>
</g>
<g id="Group_6">
<g id="Group_7">
<path id="Vector_5" d="M129.421 28.5348V127.6C129.421 134.162 124.055 139.49 117.445 139.49H68.2636C61.6541 139.49 56.2876 134.162 56.2876 127.6V28.5348C56.2876 21.9725 61.6541 16.6445 68.2636 16.6445H117.445C124.055 16.6445 129.421 21.9725 129.421 28.5348Z" fill="white"/>
<path id="Vector_6" d="M129.421 28.5348V127.6C129.421 134.162 124.055 139.49 117.445 139.49H68.2636C61.6541 139.49 56.2876 134.162 56.2876 127.6V28.5348C56.2876 21.9725 61.6541 16.6445 68.2636 16.6445H117.445C124.055 16.6445 129.421 21.9725 129.421 28.5348Z" stroke="#2C271A" stroke-width="5.98802"/>
</g>
<g id="Group_8">
<path id="Vector_7" d="M107.076 125.55C107.076 127.847 105.197 129.712 102.884 129.712H83.4109C81.0975 129.712 79.2192 127.847 79.2192 125.55C79.2192 123.253 81.0975 121.389 83.4109 121.389H102.884C105.197 121.389 107.076 123.253 107.076 125.55Z" fill="#363636"/>
</g>
</g>
<g id="Clip path group_2">
<mask id="mask1_6883_13576" style="mask-type:luminance" maskUnits="userSpaceOnUse" x="0" y="0" width="200" height="195">
<g id="__lottie_element_5189">
<path id="Vector_8" d="M0 0H200V195H0V0Z" fill="white"/>
</g>
</mask>
<g mask="url(#mask1_6883_13576)">
<g id="Group_9">
<g id="Group_10">
<g id="Group_11">
<path id="Vector_9" d="M178.684 46.1053V70.4258C178.684 77.4904 172.985 83.2264 165.966 83.2264H87.1751C80.1563 83.2264 74.4576 77.4904 74.4576 70.4258V46.1053C74.4576 39.0406 80.1563 33.3047 87.1751 33.3047H165.966C172.985 33.3047 178.684 39.0406 178.684 46.1053Z" fill="#F3C800"/>
<path id="Vector_10" d="M178.684 46.1053V70.4258C178.684 77.4904 172.985 83.2264 165.966 83.2264H87.1751C80.1563 83.2264 74.4576 77.4904 74.4576 70.4258V46.1053C74.4576 39.0406 80.1563 33.3047 87.1751 33.3047H165.966C172.985 33.3047 178.684 39.0406 178.684 46.1053Z" stroke="white" stroke-width="5.56735"/>
</g>
</g>
<g id="Group_12">
<g id="Group_13">
<path id="Vector_11" d="M100.729 66.1767C101.467 66.1767 101.814 65.839 101.771 65.2017L101.467 61.2637L105.505 63.4764C106.156 63.8516 106.677 63.7392 106.981 63.1394L108.11 61.1888C108.414 60.6264 108.24 60.2138 107.632 59.951L103.204 58.0384L107.589 56.2383C108.24 55.938 108.414 55.5254 108.11 54.963L106.981 53.013C106.677 52.3757 106.156 52.2628 105.505 52.6379L101.467 54.8132L101.771 50.6879C101.814 50.0506 101.467 49.7129 100.729 49.7129H98.0366C97.2552 49.7129 96.9073 50.0506 96.951 50.6879L97.1684 54.8881L93.13 52.6379C92.4785 52.2628 91.9582 52.3757 91.654 52.9756L90.5684 54.9256C90.2642 55.488 90.4378 55.9006 91.0893 56.2008L95.4749 58.0384L91.0462 59.951C90.3947 60.2138 90.2642 60.6264 90.5684 61.1888L91.654 63.1013C91.9582 63.7386 92.4785 63.8516 93.13 63.4764L97.1684 61.2637L96.951 65.2017C96.9073 65.839 97.2552 66.1767 98.0366 66.1767H100.729Z" stroke="#992ED1" stroke-width="0.00598802"/>
<path id="Vector_12" d="M100.729 66.1767C101.467 66.1767 101.814 65.839 101.771 65.2017L101.467 61.2637L105.505 63.4764C106.156 63.8516 106.677 63.7392 106.981 63.1394L108.11 61.1888C108.414 60.6264 108.24 60.2138 107.632 59.951L103.204 58.0384L107.589 56.2383C108.24 55.938 108.414 55.5254 108.11 54.963L106.981 53.013C106.677 52.3757 106.156 52.2628 105.505 52.6379L101.467 54.8132L101.771 50.6879C101.814 50.0506 101.467 49.7129 100.729 49.7129H98.0366C97.2552 49.7129 96.9073 50.0506 96.951 50.6879L97.1684 54.8881L93.13 52.6379C92.4785 52.2628 91.9582 52.3757 91.654 52.9756L90.5684 54.9256C90.2642 55.488 90.4378 55.9006 91.0893 56.2008L95.4749 58.0384L91.0462 59.951C90.3947 60.2138 90.2642 60.6264 90.5684 61.1888L91.654 63.1013C91.9582 63.7386 92.4785 63.8516 93.13 63.4764L97.1684 61.2637L96.951 65.2017C96.9073 65.839 97.2552 66.1767 98.0366 66.1767H100.729Z" fill="#16385A"/>
</g>
</g>
<g id="Group_14">
<g id="Group_15">
<path id="Vector_13" d="M127.674 66.1767C128.412 66.1767 128.759 65.839 128.716 65.2017L128.412 61.2637L132.45 63.4764C133.101 63.8516 133.622 63.7392 133.926 63.1394L135.055 61.1888C135.359 60.6264 135.185 60.2138 134.577 59.951L130.149 58.0384L134.534 56.2383C135.185 55.938 135.359 55.5254 135.055 54.963L133.926 53.013C133.622 52.3757 133.101 52.2628 132.45 52.6379L128.412 54.8132L128.716 50.6879C128.759 50.0506 128.412 49.7129 127.674 49.7129H124.982C124.2 49.7129 123.852 50.0506 123.896 50.6879L124.113 54.8881L120.075 52.6379C119.423 52.2628 118.903 52.3757 118.599 52.9756L117.513 54.9256C117.209 55.488 117.383 55.9006 118.034 56.2008L122.42 58.0384L117.991 59.951C117.34 60.2138 117.209 60.6264 117.513 61.1888L118.599 63.1013C118.903 63.7386 119.423 63.8516 120.075 63.4764L124.113 61.2637L123.896 65.2017C123.852 65.839 124.2 66.1767 124.982 66.1767H127.674Z" stroke="#992ED1" stroke-width="0.00598802"/>
<path id="Vector_14" d="M127.674 66.1767C128.412 66.1767 128.759 65.839 128.716 65.2017L128.412 61.2637L132.45 63.4764C133.101 63.8516 133.622 63.7392 133.926 63.1394L135.055 61.1888C135.359 60.6264 135.185 60.2138 134.577 59.951L130.149 58.0384L134.534 56.2383C135.185 55.938 135.359 55.5254 135.055 54.963L133.926 53.013C133.622 52.3757 133.101 52.2628 132.45 52.6379L128.412 54.8132L128.716 50.6879C128.759 50.0506 128.412 49.7129 127.674 49.7129H124.982C124.2 49.7129 123.852 50.0506 123.896 50.6879L124.113 54.8881L120.075 52.6379C119.423 52.2628 118.903 52.3757 118.599 52.9756L117.513 54.9256C117.209 55.488 117.383 55.9006 118.034 56.2008L122.42 58.0384L117.991 59.951C117.34 60.2138 117.209 60.6264 117.513 61.1888L118.599 63.1013C118.903 63.7386 119.423 63.8516 120.075 63.4764L124.113 61.2637L123.896 65.2017C123.852 65.839 124.2 66.1767 124.982 66.1767H127.674Z" fill="#16385A"/>
</g>
</g>
<g id="Group_16">
<g id="Group_17">
<path id="Vector_15" d="M154.325 66.1767C155.063 66.1767 155.411 65.839 155.367 65.2017L155.063 61.2637L159.101 63.4764C159.753 63.8516 160.273 63.7392 160.577 63.1394L161.706 61.1888C162.01 60.6264 161.836 60.2138 161.229 59.951L156.8 58.0384L161.185 56.2383C161.836 55.938 162.01 55.5254 161.706 54.963L160.577 53.013C160.273 52.3757 159.753 52.2628 159.101 52.6379L155.063 54.8132L155.367 50.6879C155.411 50.0506 155.063 49.7129 154.325 49.7129H151.633C150.851 49.7129 150.503 50.0506 150.547 50.6879L150.765 54.8881L146.726 52.6379C146.075 52.2628 145.554 52.3757 145.25 52.9756L144.165 54.9256C143.86 55.488 144.034 55.9006 144.686 56.2008L149.071 58.0384L144.642 59.951C143.991 60.2138 143.86 60.6264 144.165 61.1888L145.25 63.1013C145.554 63.7386 146.075 63.8516 146.726 63.4764L150.765 61.2637L150.547 65.2017C150.503 65.839 150.851 66.1767 151.633 66.1767H154.325Z" stroke="#992ED1" stroke-width="0.00598802"/>
<path id="Vector_16" d="M154.325 66.1767C155.063 66.1767 155.411 65.839 155.367 65.2017L155.063 61.2637L159.101 63.4764C159.753 63.8516 160.273 63.7392 160.577 63.1394L161.706 61.1888C162.01 60.6264 161.836 60.2138 161.229 59.951L156.8 58.0384L161.185 56.2383C161.836 55.938 162.01 55.5254 161.706 54.963L160.577 53.013C160.273 52.3757 159.753 52.2628 159.101 52.6379L155.063 54.8132L155.367 50.6879C155.411 50.0506 155.063 49.7129 154.325 49.7129H151.633C150.851 49.7129 150.503 50.0506 150.547 50.6879L150.765 54.8881L146.726 52.6379C146.075 52.2628 145.554 52.3757 145.25 52.9756L144.165 54.9256C143.86 55.488 144.034 55.9006 144.686 56.2008L149.071 58.0384L144.642 59.951C143.991 60.2138 143.86 60.6264 144.165 61.1888L145.25 63.1013C145.554 63.7386 146.075 63.8516 146.726 63.4764L150.765 61.2637L150.547 65.2017C150.503 65.839 150.851 66.1767 151.633 66.1767H154.325Z" fill="#16385A"/>
</g>
</g>
</g>
</g>
</g>
</g>
</g>
</g>
</svg>
