<svg width="24" height="24" viewBox="0 0 24 24" fill="none" xmlns="http://www.w3.org/2000/svg">
<g id="save">
<path id="Vector" d="M4.5 4.12504C4.5 3.42884 4.76339 2.76115 5.23223 2.26886C5.70107 1.77657 6.33696 1.5 7 1.5L17 1.5C17.663 1.5 18.2989 1.77657 18.7678 2.26886C19.2366 2.76115 19.5 3.42884 19.5 4.12504V21.8441C19.4999 21.9628 19.4692 22.0793 19.4111 22.1811C19.353 22.2829 19.2697 22.3663 19.17 22.4223C19.0703 22.4783 18.9581 22.5049 18.8451 22.4993C18.7322 22.4936 18.6229 22.4559 18.5287 22.3901L12 18.6953L5.47125 22.3901C5.37713 22.4559 5.26779 22.4936 5.15486 22.4993C5.04194 22.5049 4.92967 22.4783 4.83 22.4223C4.73033 22.3663 4.64701 22.2829 4.58889 22.1811C4.53078 22.0793 4.50006 21.9628 4.5 21.8441V4.12504ZM7 2.81252C6.66848 2.81252 6.35054 2.9508 6.11612 3.19695C5.8817 3.4431 5.75 3.77694 5.75 4.12504V20.6182L11.6537 17.3605C11.7563 17.2888 11.8768 17.2506 12 17.2506C12.1232 17.2506 12.2437 17.2888 12.3463 17.3605L18.25 20.6182V4.12504C18.25 3.77694 18.1183 3.4431 17.8839 3.19695C17.6495 2.9508 17.3315 2.81252 17 2.81252H7Z" fill="#7D7D7D"/>
</g>
</svg>
