<svg width="17" height="16" viewBox="0 0 17 16" fill="none" xmlns="http://www.w3.org/2000/svg">
<g id="Style/Star">
<path id="Star" d="M8.79381 12.1173C8.61287 12.0029 8.386 12.0029 8.20508 12.1173L5.43021 13.8723C5.00012 14.1443 4.46842 13.7419 4.58271 13.2308L5.31837 9.94106C5.36616 9.72734 5.29686 9.50356 5.13826 9.35944L2.69576 7.13991C2.31742 6.79611 2.52081 6.14672 3.0207 6.10243L6.23956 5.8172C6.44917 5.79863 6.63177 5.66068 6.71413 5.4587L7.97737 2.36063C8.17343 1.87979 8.82657 1.87979 9.02263 2.36063L10.2859 5.4587C10.3682 5.66069 10.5508 5.79863 10.7604 5.8172L13.9793 6.10243C14.4792 6.14672 14.6826 6.79611 14.3042 7.13991L11.8617 9.35944C11.7031 9.50356 11.6338 9.72734 11.6816 9.94106L12.4173 13.231C12.5316 13.7421 12 14.1445 11.5699 13.8726L8.79381 12.1173Z" fill="#1E1E1E"/>
</g>
</svg>
