<svg width="40" height="41" viewBox="0 0 40 41" fill="none" xmlns="http://www.w3.org/2000/svg">
<g id="bad experience" clip-path="url(#clip0_10040_516)">
<path id="Vector" d="M20 40.9316C31.0457 40.9316 40 31.9773 40 20.9316C40 9.88595 31.0457 0.931641 20 0.931641C8.9543 0.931641 0 9.88595 0 20.9316C0 31.9773 8.9543 40.9316 20 40.9316Z" fill="#F3C800"/>
<path id="Vector_2" d="M32.8325 5.59961C35.7425 9.07336 37.5 13.5459 37.5 18.4321C37.5 29.4771 28.545 38.4321 17.5 38.4321C12.6137 38.4321 8.14123 36.6746 4.66748 33.7646C8.33623 38.1446 13.84 40.9321 20 40.9321C31.045 40.9321 40 31.9771 40 20.9321C40 14.7721 37.2125 9.26836 32.8325 5.59961Z" fill="#F7B84E"/>
<g id="Group">
<path id="Vector_3" d="M25.4513 29.6806C25.0913 29.6806 24.7275 29.5931 24.3963 29.4094C22.0538 28.1131 17.9438 28.1131 15.6013 29.4094C14.635 29.9456 13.3763 29.6606 12.7925 28.7731C12.2088 27.8856 12.52 26.7319 13.4863 26.1956C17.1375 24.1744 22.8588 24.1744 26.51 26.1956C27.4763 26.7319 27.7875 27.8856 27.2038 28.7731C26.8213 29.3569 26.145 29.6806 25.4513 29.6806Z" fill="#C98E3F"/>
<path id="Vector_4" d="M12.5 22.1816C13.8807 22.1816 15 21.0624 15 19.6816C15 18.3009 13.8807 17.1816 12.5 17.1816C11.1193 17.1816 10 18.3009 10 19.6816C10 21.0624 11.1193 22.1816 12.5 22.1816Z" fill="#C98E3F"/>
<path id="Vector_5" d="M27.5 22.1816C28.8807 22.1816 30 21.0624 30 19.6816C30 18.3009 28.8807 17.1816 27.5 17.1816C26.1193 17.1816 25 18.3009 25 19.6816C25 21.0624 26.1193 22.1816 27.5 22.1816Z" fill="#C98E3F"/>
</g>
<g id="Group_2">
<path id="Vector_6" d="M13.4875 27.4476C17.1388 25.4263 22.86 25.4263 26.5113 27.4476C26.9363 27.6838 27.2263 28.0413 27.3775 28.4413C27.7025 27.6163 27.36 26.6688 26.5113 26.1976C22.86 24.1763 17.1388 24.1763 13.4875 26.1976C12.6375 26.6688 12.2963 27.6163 12.6213 28.4413C12.7725 28.0413 13.0625 27.6838 13.4875 27.4476Z" fill="#AB7934"/>
<path id="Vector_7" d="M12.5 18.4316C13.6637 18.4316 14.6325 19.2304 14.9113 20.3066C14.9637 20.1054 15 19.8991 15 19.6816C15 18.3016 13.88 17.1816 12.5 17.1816C11.12 17.1816 10 18.3016 10 19.6816C10 19.8991 10.0363 20.1054 10.0888 20.3066C10.3675 19.2304 11.3363 18.4316 12.5 18.4316Z" fill="#AB7934"/>
<path id="Vector_8" d="M27.5 18.4316C28.6637 18.4316 29.6325 19.2304 29.9125 20.3066C29.9638 20.1054 30 19.8991 30 19.6816C30 18.3016 28.88 17.1816 27.5 17.1816C26.12 17.1816 25 18.3016 25 19.6816C25 19.8991 25.0362 20.1054 25.0875 20.3066C25.3675 19.2304 26.3363 18.4316 27.5 18.4316Z" fill="#AB7934"/>
</g>
<g id="Group_3">
<path id="Vector_9" d="M31.875 25.9316C32.9105 25.9316 33.75 25.0922 33.75 24.0566C33.75 23.0211 32.9105 22.1816 31.875 22.1816C30.8395 22.1816 30 23.0211 30 24.0566C30 25.0922 30.8395 25.9316 31.875 25.9316Z" fill="#F7B84E"/>
<path id="Vector_10" d="M8.125 25.9316C9.16053 25.9316 10 25.0922 10 24.0566C10 23.0211 9.16053 22.1816 8.125 22.1816C7.08947 22.1816 6.25 23.0211 6.25 24.0566C6.25 25.0922 7.08947 25.9316 8.125 25.9316Z" fill="#F7B84E"/>
</g>
</g>
<defs>
<clipPath id="clip0_10040_516">
<rect width="40" height="40" fill="white" transform="translate(0 0.931641)"/>
</clipPath>
</defs>
</svg>
