<svg width="40" height="41" viewBox="0 0 40 41" fill="none" xmlns="http://www.w3.org/2000/svg">
<g id="good" clip-path="url(#clip0_10040_530)">
<path id="Vector" d="M20 40.9316C31.0457 40.9316 40 31.9773 40 20.9316C40 9.88595 31.0457 0.931641 20 0.931641C8.9543 0.931641 0 9.88595 0 20.9316C0 31.9773 8.9543 40.9316 20 40.9316Z" fill="#F3C800"/>
<path id="Vector_2" d="M32.8325 5.59961C35.7425 9.07461 37.5 13.5459 37.5 18.4321C37.5 29.4771 28.545 38.4321 17.5 38.4321C12.6137 38.4321 8.14248 36.6759 4.66748 33.7659C8.33623 38.1446 13.84 40.9321 20 40.9321C31.045 40.9321 40 31.9784 40 20.9321C40 14.7734 37.2125 9.26836 32.8325 5.59961Z" fill="#F7B84E"/>
<path id="Vector_3" d="M15 19.6816C14.3088 19.6816 13.75 19.1216 13.75 18.4316C13.75 17.7429 13.19 17.1816 12.5 17.1816C11.81 17.1816 11.25 17.7429 11.25 18.4316C11.25 19.1216 10.6912 19.6816 10 19.6816C9.30875 19.6816 8.75 19.1216 8.75 18.4316C8.75 16.3641 10.4325 14.6816 12.5 14.6816C14.5675 14.6816 16.25 16.3641 16.25 18.4316C16.25 19.1229 15.6912 19.6816 15 19.6816Z" fill="#C98E3F"/>
<path id="Vector_4" d="M12.5 15.9316C14.2925 15.9316 15.7913 17.1979 16.16 18.8804C16.2138 18.7416 16.25 18.5916 16.25 18.4316C16.25 16.3641 14.5675 14.6816 12.5 14.6816C10.4325 14.6816 8.75 16.3641 8.75 18.4316C8.75 18.5904 8.78625 18.7404 8.84 18.8804C9.20875 17.1979 10.7075 15.9316 12.5 15.9316Z" fill="#AB7934"/>
<path id="Vector_5" d="M30 19.6816C29.3088 19.6816 28.75 19.1216 28.75 18.4316C28.75 17.7429 28.19 17.1816 27.5 17.1816C26.81 17.1816 26.25 17.7429 26.25 18.4316C26.25 19.1216 25.6912 19.6816 25 19.6816C24.3088 19.6816 23.75 19.1216 23.75 18.4316C23.75 16.3641 25.4325 14.6816 27.5 14.6816C29.5675 14.6816 31.25 16.3641 31.25 18.4316C31.25 19.1229 30.6912 19.6816 30 19.6816Z" fill="#C98E3F"/>
<g id="Group">
<path id="Vector_6" d="M31.875 24.6816C32.9105 24.6816 33.75 23.8422 33.75 22.8066C33.75 21.7711 32.9105 20.9316 31.875 20.9316C30.8395 20.9316 30 21.7711 30 22.8066C30 23.8422 30.8395 24.6816 31.875 24.6816Z" fill="#F7B84E"/>
<path id="Vector_7" d="M8.125 24.6816C9.16053 24.6816 10 23.8422 10 22.8066C10 21.7711 9.16053 20.9316 8.125 20.9316C7.08947 20.9316 6.25 21.7711 6.25 22.8066C6.25 23.8422 7.08947 24.6816 8.125 24.6816Z" fill="#F7B84E"/>
</g>
<path id="Vector_8" d="M27.5 15.9316C29.2925 15.9316 30.7912 17.1979 31.16 18.8804C31.2137 18.7416 31.25 18.5916 31.25 18.4316C31.25 16.3641 29.5675 14.6816 27.5 14.6816C25.4325 14.6816 23.75 16.3641 23.75 18.4316C23.75 18.5904 23.7863 18.7404 23.84 18.8804C24.2088 17.1979 25.7075 15.9316 27.5 15.9316Z" fill="#AB7934"/>
<path id="Vector_9" d="M26.8188 24.6816H13.1813C12.805 24.6816 12.5 24.9629 12.5 25.3066C12.5 29.0979 15.8637 32.1816 20 32.1816C24.1362 32.1816 27.5 29.0979 27.5 25.3066C27.5 24.9629 27.195 24.6816 26.8188 24.6816Z" fill="#C98E3F"/>
<path id="Vector_10" d="M27.45 25.9316C27.4725 25.7254 27.5 25.5191 27.5 25.3066C27.5 24.9629 27.195 24.6816 26.8188 24.6816H13.1813C12.805 24.6816 12.5 24.9629 12.5 25.3066C12.5 25.5191 12.5275 25.7254 12.55 25.9316H27.45Z" fill="#AB7934"/>
</g>
<defs>
<clipPath id="clip0_10040_530">
<rect width="40" height="40" fill="white" transform="translate(0 0.931641)"/>
</clipPath>
</defs>
</svg>
