<svg width="40" height="41" viewBox="0 0 40 41" fill="none" xmlns="http://www.w3.org/2000/svg">
<g id="loved" clip-path="url(#clip0_10040_564)">
<path id="Vector" d="M20 40.9316C31.0457 40.9316 40 31.9773 40 20.9316C40 9.88595 31.0457 0.931641 20 0.931641C8.9543 0.931641 0 9.88595 0 20.9316C0 31.9773 8.9543 40.9316 20 40.9316Z" fill="#F3C800"/>
<path id="Vector_2" d="M32.8325 5.59961C35.7425 9.07336 37.5 13.5459 37.5 18.4321C37.5 29.4771 28.545 38.4321 17.5 38.4321C12.6137 38.4321 8.14123 36.6746 4.66748 33.7646C8.33623 38.1446 13.84 40.9321 20 40.9321C31.045 40.9321 40 31.9771 40 20.9321C40 14.7721 37.2125 9.26836 32.8325 5.59961Z" fill="#F7B84E"/>
<path id="Vector_3" d="M26.8188 24.6816H13.1813C12.805 24.6816 12.5 24.9616 12.5 25.3066C12.5 29.0979 15.8637 32.1816 20 32.1816C24.1362 32.1816 27.5 29.0979 27.5 25.3066C27.5 24.9616 27.195 24.6816 26.8188 24.6816Z" fill="#C98E3F"/>
<path id="Vector_4" d="M27.45 25.9316C27.4725 25.7241 27.5 25.5191 27.5 25.3066C27.5 24.9616 27.195 24.6816 26.8188 24.6816H13.1813C12.805 24.6816 12.5 24.9616 12.5 25.3066C12.5 25.5191 12.5275 25.7241 12.55 25.9316H27.45Z" fill="#AB7934"/>
<g id="Group">
<path id="Vector_5" d="M31.875 24.6816C32.9105 24.6816 33.75 23.8422 33.75 22.8066C33.75 21.7711 32.9105 20.9316 31.875 20.9316C30.8395 20.9316 30 21.7711 30 22.8066C30 23.8422 30.8395 24.6816 31.875 24.6816Z" fill="#F7B84E"/>
<path id="Vector_6" d="M8.125 24.6816C9.16053 24.6816 10 23.8422 10 22.8066C10 21.7711 9.16053 20.9316 8.125 20.9316C7.08947 20.9316 6.25 21.7711 6.25 22.8066C6.25 23.8422 7.08947 24.6816 8.125 24.6816Z" fill="#F7B84E"/>
</g>
<path id="Vector_7" d="M12.5 20.9316C12.3 20.9316 12.1013 20.8566 11.9488 20.7079L8.37625 17.1979C7.81125 16.6429 7.5 15.9054 7.5 15.1204C7.5 14.3354 7.81125 13.5966 8.37625 13.0404C8.94125 12.4879 9.6925 12.1816 10.4925 12.1816C11.2413 12.1816 11.9488 12.8379 12.5 13.3304C13.0512 12.8379 13.76 12.1816 14.51 12.1816C15.31 12.1816 16.06 12.4879 16.625 13.0416C17.1912 13.5979 17.5 14.3354 17.5 15.1216C17.5 15.9066 17.19 16.6441 16.625 17.1991L13.0525 20.7091C12.9 20.8566 12.7013 20.9316 12.5 20.9316Z" fill="#F15642"/>
<path id="Vector_8" d="M8.37625 14.2916C8.94125 13.7379 9.6925 13.4316 10.4925 13.4316C11.2413 13.4316 11.95 14.0879 12.5013 14.5804C13.0513 14.0879 13.76 13.4316 14.51 13.4316C15.31 13.4316 16.06 13.7379 16.625 14.2916C17.0375 14.6966 17.3088 15.2004 17.4288 15.7454C17.4738 15.5416 17.5013 15.3341 17.5013 15.1204C17.5013 14.3354 17.1912 13.5966 16.6262 13.0404C16.06 12.4879 15.31 12.1816 14.51 12.1816C13.76 12.1816 13.0513 12.8379 12.5013 13.3304C11.9488 12.8379 11.2413 12.1816 10.4925 12.1816C9.6925 12.1816 8.94125 12.4879 8.37625 13.0416C7.81125 13.5966 7.5 14.3354 7.5 15.1204C7.5 15.3329 7.5275 15.5416 7.5725 15.7454C7.69125 15.1991 7.965 14.6966 8.37625 14.2916Z" fill="#DA4E3C"/>
<path id="Vector_9" d="M27.5 20.9316C27.3 20.9316 27.1025 20.8566 26.9488 20.7079L23.3775 17.1979C22.8112 16.6429 22.5 15.9054 22.5 15.1204C22.5 14.3354 22.8113 13.5966 23.3763 13.0404C23.94 12.4879 24.6925 12.1816 25.4925 12.1816C26.24 12.1816 26.9488 12.8379 27.5 13.3304C28.0512 12.8379 28.76 12.1816 29.5088 12.1816C30.31 12.1816 31.0588 12.4879 31.6237 13.0416C32.1887 13.5979 32.4988 14.3354 32.4988 15.1216C32.4988 15.9066 32.1887 16.6441 31.6237 17.1991L28.0512 20.7091C27.9 20.8566 27.7 20.9316 27.5 20.9316Z" fill="#F15642"/>
<path id="Vector_10" d="M23.3763 14.2916C23.94 13.7379 24.6925 13.4316 25.4925 13.4316C26.2412 13.4316 26.9488 14.0879 27.5 14.5804C28.0512 14.0879 28.76 13.4316 29.5088 13.4316C30.31 13.4316 31.0588 13.7379 31.6237 14.2916C32.035 14.6966 32.3087 15.2004 32.4275 15.7454C32.4725 15.5416 32.5 15.3341 32.5 15.1204C32.5 14.3354 32.19 13.5966 31.625 13.0404C31.06 12.4879 30.31 12.1816 29.5088 12.1816C28.7588 12.1816 28.0512 12.8379 27.5 13.3304C26.9488 12.8379 26.24 12.1816 25.4925 12.1816C24.6925 12.1816 23.9412 12.4879 23.3775 13.0416C22.8112 13.5966 22.5 14.3354 22.5 15.1204C22.5 15.3329 22.5263 15.5416 22.5725 15.7454C22.6913 15.1991 22.9638 14.6966 23.3763 14.2916Z" fill="#DA4E3C"/>
</g>
<defs>
<clipPath id="clip0_10040_564">
<rect width="40" height="40" fill="white" transform="translate(0 0.931641)"/>
</clipPath>
</defs>
</svg>
