<svg width="40" height="41" viewBox="0 0 40 41" fill="none" xmlns="http://www.w3.org/2000/svg">
<g id="v.good" clip-path="url(#clip0_10040_542)">
<path id="Vector" d="M20 40.9316C31.0457 40.9316 40 31.9773 40 20.9316C40 9.88595 31.0457 0.931641 20 0.931641C8.9543 0.931641 0 9.88595 0 20.9316C0 31.9773 8.9543 40.9316 20 40.9316Z" fill="#F3C800"/>
<g id="Group">
<path id="Vector_2" d="M32.8325 5.59961C35.7425 9.07336 37.5 13.5459 37.5 18.4321C37.5 29.4771 28.545 38.4321 17.5 38.4321C12.6137 38.4321 8.14248 36.6746 4.66748 33.7646C8.33623 38.1446 13.84 40.9321 20 40.9321C31.045 40.9321 40 31.9771 40 20.9321C40 14.7721 37.2125 9.26836 32.8325 5.59961Z" fill="#F7B84E"/>
<path id="Vector_3" d="M33.125 20.9316C34.1605 20.9316 35 20.0922 35 19.0566C35 18.0211 34.1605 17.1816 33.125 17.1816C32.0895 17.1816 31.25 18.0211 31.25 19.0566C31.25 20.0922 32.0895 20.9316 33.125 20.9316Z" fill="#F7B84E"/>
<path id="Vector_4" d="M6.875 20.9316C7.91053 20.9316 8.75 20.0922 8.75 19.0566C8.75 18.0211 7.91053 17.1816 6.875 17.1816C5.83947 17.1816 5 18.0211 5 19.0566C5 20.0922 5.83947 20.9316 6.875 20.9316Z" fill="#F7B84E"/>
</g>
<path id="Vector_5" d="M15 17.1816C14.3088 17.1816 13.75 16.6216 13.75 15.9316C13.75 15.2429 13.19 14.6816 12.5 14.6816C11.81 14.6816 11.25 15.2429 11.25 15.9316C11.25 16.6216 10.6912 17.1816 10 17.1816C9.30875 17.1816 8.75 16.6216 8.75 15.9316C8.75 13.8641 10.4325 12.1816 12.5 12.1816C14.5675 12.1816 16.25 13.8641 16.25 15.9316C16.25 16.6216 15.6912 17.1816 15 17.1816Z" fill="#C98E3F"/>
<path id="Vector_6" d="M12.5 13.4316C14.2925 13.4316 15.7913 14.6979 16.16 16.3804C16.2138 16.2404 16.25 16.0904 16.25 15.9316C16.25 13.8641 14.5675 12.1816 12.5 12.1816C10.4325 12.1816 8.75 13.8641 8.75 15.9316C8.75 16.0904 8.78625 16.2404 8.84 16.3804C9.20875 14.6979 10.7075 13.4316 12.5 13.4316Z" fill="#AB7934"/>
<path id="Vector_7" d="M30 17.1816C29.3088 17.1816 28.75 16.6216 28.75 15.9316C28.75 15.2429 28.19 14.6816 27.5 14.6816C26.81 14.6816 26.25 15.2429 26.25 15.9316C26.25 16.6216 25.6912 17.1816 25 17.1816C24.3088 17.1816 23.75 16.6216 23.75 15.9316C23.75 13.8641 25.4325 12.1816 27.5 12.1816C29.5675 12.1816 31.25 13.8641 31.25 15.9316C31.25 16.6216 30.6912 17.1816 30 17.1816Z" fill="#C98E3F"/>
<path id="Vector_8" d="M27.5 13.4316C29.2925 13.4316 30.7912 14.6979 31.16 16.3804C31.2137 16.2404 31.25 16.0904 31.25 15.9316C31.25 13.8641 29.5675 12.1816 27.5 12.1816C25.4325 12.1816 23.75 13.8641 23.75 15.9316C23.75 16.0904 23.7863 16.2404 23.84 16.3804C24.2088 14.6979 25.7075 13.4316 27.5 13.4316Z" fill="#AB7934"/>
<path id="Vector_9" d="M31.365 23.4316H8.635C8.0075 23.4316 7.5 23.8979 7.5 24.4741C7.5 30.7929 13.1075 35.9316 20 35.9316C26.8925 35.9316 32.5 30.7929 32.5 24.4741C32.5 23.8979 31.9925 23.4316 31.365 23.4316Z" fill="white"/>
<g id="Group_2">
<path id="Vector_10" d="M32.4175 25.5141C32.4538 25.1704 32.5 24.8279 32.5 24.4741C32.5 23.8979 31.9925 23.4316 31.365 23.4316H8.635C8.0075 23.4316 7.5 23.8979 7.5 24.4741C7.5 24.8279 7.54625 25.1704 7.5825 25.5141H32.4175Z" fill="#E2E5E7"/>
<path id="Vector_11" d="M10 31.3204C10.3838 31.7891 10.7962 32.2329 11.25 32.6441V23.4316H10V31.3204Z" fill="#E2E5E7"/>
<path id="Vector_12" d="M16.25 35.4029C16.6575 35.5216 17.075 35.6216 17.5 35.7004V23.4316H16.25V35.4029Z" fill="#E2E5E7"/>
<path id="Vector_13" d="M22.5 35.7004C22.925 35.6216 23.3425 35.5204 23.75 35.4029V23.4316H22.5V35.7004Z" fill="#E2E5E7"/>
<path id="Vector_14" d="M30 31.3204V23.4316H28.75V32.6429C29.2038 32.2329 29.6162 31.7891 30 31.3204Z" fill="#E2E5E7"/>
</g>
<g id="Group_3">
<path id="Vector_15" d="M11.25 23.4316H10V25.5141H11.25V23.4316Z" fill="#CAD1D8"/>
<path id="Vector_16" d="M17.5 23.4316H16.25V25.5141H17.5V23.4316Z" fill="#CAD1D8"/>
<path id="Vector_17" d="M23.75 23.4316H22.5V25.5141H23.75V23.4316Z" fill="#CAD1D8"/>
<path id="Vector_18" d="M30 23.4316H28.75V25.5141H30V23.4316Z" fill="#CAD1D8"/>
</g>
</g>
<defs>
<clipPath id="clip0_10040_542">
<rect width="40" height="40" fill="white" transform="translate(0 0.931641)"/>
</clipPath>
</defs>
</svg>
