<svg width="24" height="18" viewBox="0 0 24 18" fill="none" xmlns="http://www.w3.org/2000/svg">
<path id="Vector" d="M4.55061 11.1488C2.92389 8.53223 1.75777 5.36683 1.37248 2.48067C1.61601 2.63551 1.87754 2.79755 2.15173 2.96136C3.52177 3.77985 5.38225 4.75116 6.90147 4.94719L11.122 5.49178L11.2134 5.50357L11.3055 5.49846L15.5412 5.26314C15.589 5.26049 15.6374 5.25781 15.6863 5.25511C17.0355 5.18056 18.8141 5.08228 20.4258 4.69248C21.1204 4.52449 21.8357 4.2905 22.4932 3.95149C21.9525 6.56075 20.6459 9.2786 18.9255 11.5401C16.6084 14.586 13.7816 16.502 11.4228 16.502C10.3 16.502 9.10402 16.0122 7.90054 15.0635C6.70005 14.1171 5.55128 12.7584 4.55061 11.1488Z" stroke="#F3C800" stroke-width="2"/>
</svg>
