<svg width="32" height="32" viewBox="0 0 32 32" fill="none" xmlns="http://www.w3.org/2000/svg">
<g id="arcticons:notificationcron">
<path id="Vector" d="M18.0603 26.0688L22.087 27.5354M25.9603 28.1221L25.1136 21.7154L27.2203 15.9488C27.8673 14.185 27.9079 12.2559 27.3356 10.4666C26.7633 8.67718 25.6108 7.12967 24.0603 6.06877C24.1083 5.98835 24.1485 5.90352 24.1803 5.81544C24.3109 5.30161 24.246 4.75762 23.9984 4.28886C23.7508 3.8201 23.338 3.45994 22.84 3.27816C22.342 3.09639 21.7942 3.10594 21.3028 3.30497C20.8114 3.50399 20.4114 3.87832 20.1803 4.35544C20.1488 4.44223 20.1243 4.5314 20.107 4.6221C18.2405 4.43967 16.3663 4.88209 14.7784 5.87993C13.1905 6.87778 11.9789 8.37457 11.3336 10.1354L9.22697 15.9488L4.44031 20.3088C4.38782 20.3539 4.34501 20.4092 4.31445 20.4713C4.28389 20.5334 4.2662 20.6011 4.26247 20.6702C4.25873 20.7394 4.26902 20.8085 4.2927 20.8736C4.31639 20.9386 4.35299 20.9982 4.40031 21.0488C4.45616 21.1168 4.53012 21.1676 4.61364 21.1954L6.98697 22.0554L18.0603 26.0554C17.8508 26.5859 17.8606 27.1778 18.0875 27.701C18.3144 28.2243 18.7399 28.6359 19.2703 28.8454C19.8007 29.055 20.3927 29.0452 20.9159 28.8183C21.4391 28.5913 21.8508 28.1659 22.0603 27.6354L22.1003 27.5221L22.8803 27.8088L25.2403 28.6688C25.3678 28.7152 25.5083 28.7106 25.6325 28.6559C25.7567 28.6013 25.855 28.5008 25.907 28.3754C25.9453 28.2967 25.9636 28.2096 25.9603 28.1221Z" stroke="#1E1E1E" stroke-width="1.33333" stroke-linecap="round" stroke-linejoin="round"/>
<circle id="Ellipse 316" cx="27" cy="9" r="5" fill="#F3C800"/>
</g>
</svg>
