<svg width="14" height="14" viewBox="0 0 14 14" fill="none" xmlns="http://www.w3.org/2000/svg">
<g id="Group">
<path id="Vector" d="M6.13331 10.433C8.78428 10.433 10.9333 8.28397 10.9333 5.63301C10.9333 2.98204 8.78428 0.833008 6.13331 0.833008C3.48235 0.833008 1.33331 2.98204 1.33331 5.63301C1.33331 8.28397 3.48235 10.433 6.13331 10.433Z" stroke="#B0B0B0"/>
<g id="Vector_2">
<path d="M6.13334 3.2334C5.49682 3.2334 4.88637 3.48625 4.43628 3.93634C3.98619 4.38643 3.73334 4.99688 3.73334 5.6334M13.3333 12.8334L10.9333 10.4334L13.3333 12.8334Z" fill="#B0B0B0"/>
<path d="M6.13334 3.2334C5.49682 3.2334 4.88637 3.48625 4.43628 3.93634C3.98619 4.38643 3.73334 4.99688 3.73334 5.6334M13.3333 12.8334L10.9333 10.4334" stroke="#B0B0B0" stroke-linecap="round"/>
</g>
</g>
</svg>
